<?xml version="1.0" standalone="no"?>
<!DOCTYPE svg PUBLIC "-//W3C//DTD SVG 20010904//EN"
 "http://www.w3.org/TR/2001/REC-SVG-20010904/DTD/svg10.dtd">
<svg version="1.0" xmlns="http://www.w3.org/2000/svg"
 width="600.000000pt" height="598.000000pt" viewBox="0 0 600.000000 598.000000"
 preserveAspectRatio="xMidYMid meet">
<g transform="translate(0.000000,598.000000) scale(0.100000,-0.100000)"
fill="#000000" stroke="none">
<path d="M2383 4267 c15 -195 84 -353 258 -597 159 -224 223 -363 230 -502 l3
-53 -55 3 c-144 7 -267 63 -489 221 -170 121 -311 199 -417 230 -65 19 -198
41 -249 41 l-24 0 0 -124 0 -123 58 -7 c125 -14 246 -73 469 -228 67 -46 142
-95 167 -109 43 -22 58 -39 37 -39 -5 0 -94 -57 -198 -126 -249 -168 -391
-234 -500 -234 l-33 0 0 -125 0 -125 39 0 c57 0 197 26 265 50 104 35 196 88
371 210 239 168 357 222 500 232 l50 3 3 -48 c7 -115 -65 -279 -213 -487 -120
-166 -177 -262 -215 -362 -31 -81 -60 -222 -60 -294 l0 -44 124 0 123 0 6 58
c11 123 71 249 218 458 43 61 93 139 112 173 l34 62 28 -48 c16 -26 75 -117
132 -201 56 -83 119 -184 139 -223 36 -73 74 -200 74 -251 l0 -28 125 0 125 0
0 28 c0 54 -29 218 -49 275 -31 88 -86 191 -159 297 -159 229 -213 316 -241
388 -29 76 -58 223 -47 241 7 11 68 5 161 -16 101 -22 212 -81 386 -205 173
-123 262 -174 367 -212 79 -28 220 -56 283 -56 l39 0 0 125 0 125 -32 0 c-112
1 -252 64 -473 215 -82 56 -169 112 -192 125 -40 22 -55 40 -34 40 5 0 94 57
198 126 103 69 218 141 255 160 74 37 195 74 245 74 l33 0 0 126 0 126 -77 -7
c-220 -19 -332 -68 -628 -275 -220 -153 -314 -196 -479 -216 l-58 -7 7 64 c19
163 65 263 231 499 126 180 190 297 222 405 20 67 42 200 42 251 l0 24 -125 0
-125 0 0 -28 c0 -55 -40 -183 -81 -263 -23 -44 -80 -135 -127 -202 -46 -67
-103 -152 -125 -190 l-40 -68 -32 59 c-17 32 -62 103 -101 158 -158 223 -220
352 -232 476 l-5 58 -125 0 -125 0 6 -83z m737 -1277 l0 -120 -120 0 -120 0 0
120 0 120 120 0 120 0 0 -120z"/>
</g>
</svg>
