<?xml version="1.0" encoding="UTF-8" standalone="no"?>
<!DOCTYPE svg PUBLIC "-//W3C//DTD SVG 1.1//EN" "http://www.w3.org/Graphics/SVG/1.1/DTD/svg11.dtd">
<svg width="100%" height="100%" viewBox="0 0 600 598" version="1.1" xmlns="http://www.w3.org/2000/svg" xmlns:xlink="http://www.w3.org/1999/xlink" xml:space="preserve" xmlns:serif="http://www.serif.com/" style="fill-rule:evenodd;clip-rule:evenodd;stroke-linejoin:round;stroke-miterlimit:2;">
    <g transform="matrix(0.219584,-3.94268e-33,-3.94268e-33,-0.219584,-358.752,955.556)">
        <path d="M2383,4267C2398,4072 2467,3914 2641,3670C2800,3446 2864,3307 2871,3168L2874,3115L2819,3118C2675,3125 2552,3181 2330,3339C2160,3460 2019,3538 1913,3569C1848,3588 1715,3610 1664,3610L1640,3610L1640,3363L1698,3356C1823,3342 1944,3283 2167,3128C2234,3082 2309,3033 2334,3019C2377,2997 2392,2980 2371,2980C2366,2980 2277,2923 2173,2854C1924,2686 1782,2620 1673,2620L1640,2620L1640,2370L1679,2370C1736,2370 1876,2396 1944,2420C2048,2455 2140,2508 2315,2630C2554,2798 2672,2852 2815,2862L2865,2865L2868,2817C2875,2702 2803,2538 2655,2330C2535,2164 2478,2068 2440,1968C2409,1887 2380,1746 2380,1674L2380,1630L2627,1630L2633,1688C2644,1811 2704,1937 2851,2146C2894,2207 2944,2285 2963,2319L2997,2381L3025,2333C3041,2307 3100,2216 3157,2132C3213,2049 3276,1948 3296,1909C3332,1836 3370,1709 3370,1658L3370,1630L3620,1630L3620,1658C3620,1712 3591,1876 3571,1933C3540,2021 3485,2124 3412,2230C3253,2459 3199,2546 3171,2618C3142,2694 3113,2841 3124,2859C3131,2870 3192,2864 3285,2843C3386,2821 3497,2762 3671,2638C3844,2515 3933,2464 4038,2426C4117,2398 4258,2370 4321,2370L4360,2370L4360,2620L4328,2620C4216,2621 4076,2684 3855,2835C3773,2891 3686,2947 3663,2960C3623,2982 3608,3000 3629,3000C3634,3000 3723,3057 3827,3126C3930,3195 4045,3267 4082,3286C4156,3323 4277,3360 4327,3360L4360,3360L4360,3612L4283,3605C4063,3586 3951,3537 3655,3330C3435,3177 3341,3134 3176,3114L3118,3107L3125,3171C3144,3334 3190,3434 3356,3670C3482,3850 3546,3967 3578,4075C3598,4142 3620,4275 3620,4326L3620,4350L3370,4350L3370,4322C3370,4267 3330,4139 3289,4059C3266,4015 3209,3924 3162,3857C3116,3790 3059,3705 3037,3667L2997,3599L2965,3658C2948,3690 2903,3761 2864,3816C2706,4039 2644,4168 2632,4292L2627,4350L2377,4350L2383,4267ZM3120,3110L3120,2870L2880,2870L2880,3110L3120,3110Z" style="fill-rule:nonzero;"/>
    </g>
</svg>
